<svg width="30" height="30" viewBox="0 0 11.467 13.626" xmlns="http://www.w3.org/2000/svg">
  <path d="M4.736 13.085c-.736.51-1.953.688-2.785.408-.787-.264-1.757-1.38-1.91-2.196a3.477 3.477 0 0 1 .042-1.289c.302-1.13 4.291-8.452 4.958-9.1.713-.692 1.75-1.04 2.572-.862 1.412.305 3.248 1.588 3.646 2.547.493 1.19.195 2.172-1.8 5.92-1.023 1.926-1.938 3.528-2.033 3.56-.094.03-.34-.085-.546-.258l-.374-.315 1.842-3.44c1.594-2.976 1.843-3.553 1.847-4.285.006-.999-.31-1.367-1.833-2.138-1.169-.59-1.92-.53-2.603.208-.67.726-4.403 7.917-4.506 8.68-.107.803.27 1.463 1.015 1.771.629.26 1.61.105 1.98-.314.149-.168.921-1.52 1.717-3.005 1.528-2.854 1.639-3.335.86-3.752-.555-.296-1.13.043-1.577.932-.21.417-.734 1.411-1.167 2.21L3.295 9.82l-.523-.27-.522-.27 1.137-2.153C4.63 4.776 5.166 4.097 5.89 3.959c1.29-.247 2.639.799 2.63 2.04-.006 1.083-2.877 6.458-3.783 7.086z" fill="#fff"/>
</svg>
