<svg width="30" height="45" viewBox="0 0 7.938 11.906" xmlns="http://www.w3.org/2000/svg">
  <path d="M4.097 4.465c.404-.876-.304-1.167-.348-.534a2.314 2.314 0 0 0-.007.4c.022.155.055.313.104.466a1.01 1.01 0 0 0 .251-.332zm-1.915.32.268.15c-.107-.265-.24-.522-.425-.681-.094.252-.04.43.157.531zm3.073 1.227a1.56 1.56 0 0 0 .417-.08c.441-.284.466-.535.073-.752-.331-.06-.638.364-.832.793a.87.87 0 0 0 .342.039zm-.722.174a1.845 1.845 0 0 1-.625-.43 1.84 1.84 0 0 1-.275-.47c-.21.104-.403.16-.593.172.338 1.106.432 2.29.507 3.437a.225.225 0 0 1-.044.133h1.059c-.304-.938-.354-1.938-.03-2.842z"/>
  <path d="M6.651 1.03C6.141.521 5.494 0 3.969 0 2.443 0 1.796.522 1.286 1.03c-2.51 2.502-.604 5.12-.42 5.437.184.317.605 1.295.684 1.954.079.66.341.607.341.607h1.304c-.073-1.139-.13-2.415-.525-3.49l-.04-.115a2.393 2.393 0 0 1-.53-.198c-.303-.151-.721-.523-.591-.918.374-1.134 1.085-.031 1.32.55.03.072.054.147.081.221.204.026.417-.002.611-.081-.232-.693-.303-1.59.29-1.82.39-.15.74.374.738.724-.003.456-.239.886-.592 1.175a2.08 2.08 0 0 0 .71.784c.07-.148.152-.294.246-.435.18-.27.54-.7.917-.63.328.06.664.435.571.792-.2.772-.947.889-1.608.693a1.9 1.9 0 0 0-.09.37c-.072.746-.025 1.537.224 2.248a.19.19 0 0 1-.01.13h1.129s.263.053.342-.607c.078-.66.5-1.637.683-1.954.185-.316 2.091-2.935-.42-5.438zm-.728 8.421h-3.76a.395.395 0 0 0 0 .792h3.76a.396.396 0 0 0 0-.792zm-.092.977H2.255a.369.369 0 0 0 0 .74h3.576a.37.37 0 0 0 0-.74zm-.885.888H3.14a.294.294 0 0 0-.294.295c0 .164.132.295.294.295h1.805a.294.294 0 0 0 0-.59z"/>
</svg>
