<svg width="141.519" height="141.486" viewBox="0 0 37.444 37.435" xmlns="http://www.w3.org/2000/svg">
  <path d="M20.775 37.268c4.163-.465 7.768-2.137 10.788-5.005 3.931-3.733 5.885-8.278 5.88-13.68-.003-5.745-2.447-10.848-6.946-14.506-1.867-1.52-4.77-2.994-7.106-3.611C21.826.052 21.301 0 18.717 0c-2.58 0-3.104.052-4.622.46C9.773 1.62 6.064 4.194 3.36 7.908.013 12.505-.93 19.116.967 24.688c2.52 7.403 9.459 12.472 17.448 12.745.368.013 1.43-.062 2.36-.165zm-5.41-12.335v-4.94h-3.351v-3.88h3.352v-1.555c0-4.294 1.224-6.07 4.467-6.474.552-.07 1.599-.07 2.326-.002l1.32.124v3.498h-1.595c-1.5 0-1.622.028-2.029.466-.398.43-.432.604-.432 2.205v1.738h3.908l-.093.485a24.63 24.63 0 0 0-.2 1.455 24.663 24.663 0 0 1-.2 1.456l-.092.485h-3.323v9.876h-4.057z"/>
</svg>
