<svg width="35mm" height="113.386" viewBox="0 0 35 30" xmlns="http://www.w3.org/2000/svg">
  <path d="M21.14 29.899c-1.65-.61-2.419-1.595-2.54-3.259-.054-.722.011-1.226.218-1.693.162-.365 1.426-1.956 2.81-3.535l2.517-2.871H13.227c-12.342 0-11.561.097-12.693-1.57-.543-.8-.572-.92-.511-2.142.077-1.552.634-2.541 1.755-3.117.667-.343 1.332-.364 11.528-.368l10.82-.004-2.681-3.074c-2.89-3.311-3.038-3.592-2.832-5.331.107-.903.828-2.021 1.658-2.572.689-.456 2.138-.488 2.851-.062.282.168 3 3.136 6.043 6.597 4.857 5.524 5.555 6.393 5.727 7.134a3.87 3.87 0 0 1-.263 2.563c-.123.267-2.725 3.303-5.782 6.746-4.658 5.248-5.668 6.295-6.245 6.471-.727.223-1.042.242-1.461.087z"/>
</svg>
