<svg width="141.433" height="141.302" viewBox="0 0 37.421 37.386" xmlns="http://www.w3.org/2000/svg">
  <path d="M23.169 36.813c9.277-2.253 15.482-11.457 14.045-20.832C36.054 8.418 30.689 2.454 23.257.468 21.68.046 21.187-.003 18.583 0c-2.606.003-3.094.054-4.662.48C7.315 2.28 2.231 7.37.46 13.958.049 15.488 0 15.991 0 18.67c0 2.49.063 3.224.367 4.327 1.604 5.814 5.1 10.113 10.19 12.532 4.063 1.93 8.213 2.353 12.612 1.285zm-9.839-8.535c-1.787-.368-3.302-1.662-3.883-3.316-.578-1.647-.595-10.914-.023-12.555.362-1.038 1.325-2.197 2.238-2.694 1.328-.723 2.869-.875 8.132-.802 4.438.061 4.747.087 5.58.466 1.11.506 2.1 1.453 2.705 2.59l.47.881v5.733c0 5.523-.014 5.763-.386 6.567-.641 1.39-1.249 2.034-2.496 2.648l-1.166.574-5.208.032c-2.864.017-5.547-.038-5.962-.124zm11.13-1.768c.899-.255 1.986-1.37 2.262-2.32.152-.523.224-2.294.23-5.702l.01-4.944-.452-.877c-.496-.964-1.245-1.561-2.354-1.878-1.082-.31-9.643-.287-10.77.029-1.055.295-2.11 1.288-2.38 2.24-.283 1.002-.424 7.084-.217 9.387.159 1.765.242 2.099.68 2.718.65.921 1.53 1.358 3.103 1.54 1.68.194 9.026.05 9.887-.193zm-7.737-3.307c-3.761-1.82-3.872-7.064-.19-8.993 1.218-.638 3.337-.68 4.452-.088 1.823.967 2.89 2.643 2.888 4.531-.005 2.738-2.036 4.83-4.85 4.994-1.086.063-1.361.01-2.3-.444zm4.084-1.9c1.01-.818 1.336-1.555 1.262-2.848-.051-.9-.157-1.212-.588-1.745-.719-.888-1.56-1.304-2.634-1.304-1.118 0-1.944.43-2.69 1.399-.508.66-.573.872-.573 1.864 0 .992.066 1.206.578 1.882.816 1.078 1.546 1.415 2.9 1.339.9-.05 1.211-.156 1.745-.587zm2.538-7.132c-.686-.687-.193-1.94.763-1.94.508 0 1.178.684 1.178 1.202 0 .517-.603 1.09-1.147 1.09-.242 0-.6-.158-.794-.352z"/>
</svg>
