<svg width="178.425" height="140.701" viewBox="0 0 47.208 37.227" xmlns="http://www.w3.org/2000/svg">
  <path d="M28.187 37.074c-3.226-.906-5.036-4.006-4.14-7.09.525-1.804 1.502-2.955 3.147-3.708 2.142-.98 4.59-.55 6.336 1.116 3.57 3.405 1.458 9.364-3.478 9.812-.628.057-1.386.004-1.865-.13zm-14.996-7.41c-1.157-.61-1.804-1.635-1.89-2.989-.066-1.06-.027-1.18 1.1-3.432 2.932-5.852 6.911-9.182 12.971-10.856 1.11-.306 1.835-.367 4.415-.368 2.819 0 3.24.041 4.851.482 1.848.505 5.038 1.925 6.034 2.685 1.9 1.45 1.727 4.498-.327 5.767-1.31.81-2.304.733-4.673-.36-2.393-1.105-3.794-1.455-5.824-1.455-3.273 0-5.932 1.105-8.273 3.435-1.24 1.236-1.57 1.707-2.587 3.709-.642 1.261-1.391 2.507-1.666 2.769-1.124 1.07-2.795 1.318-4.131.613zM1.77 24.05C.764 23.553.115 22.564.018 21.377c-.07-.85.014-1.094 1.163-3.385.682-1.359 1.692-3.144 2.245-3.97C8.183 6.93 15.398 2.113 23.82.406 25.56.052 26.342 0 29.876 0c3.567 0 4.285.049 5.952.406 2.888.618 5.45 1.498 8.014 2.75 2.51 1.226 3.076 1.759 3.322 3.122.374 2.067-1.694 4.165-3.728 3.784-.32-.06-1.558-.577-2.75-1.148-3.975-1.906-7.31-2.586-11.85-2.419-4.022.149-6.53.77-10.073 2.493-5.086 2.473-8.76 6.18-11.616 11.723-1.432 2.778-1.623 3.028-2.628 3.448-.9.375-1.847.338-2.748-.108z"/>
</svg>
