<svg width="140.967" height="141.441" viewBox="0 0 37.297 37.423" xmlns="http://www.w3.org/2000/svg">
  <path d="M20.526 37.273c4.486-.46 8.52-2.449 11.647-5.741 2.222-2.338 3.538-4.653 4.526-7.955.57-1.907.777-5.766.427-7.96C35.98 8.45 30.403 2.349 23.274.467 21.71.052 21.183 0 18.6 0s-3.109.052-4.674.466C8.4 1.925 3.532 6.1 1.365 11.238.19 14.023-.01 15.127 0 18.759c.01 3.032.044 3.376.49 4.85 2.262 7.469 8.567 12.88 15.907 13.652 2.03.214 2.16.214 4.129.012zm-9.863-16.485v-6.086h3.704v12.171h-3.704zm6.173 0v-6.086h3.528v1.633l.764-.705c1.012-.933 1.777-1.166 3.499-1.066 1.178.068 1.51.16 2.138.596 1.516 1.05 1.88 2.692 1.886 8.494l.003 3.219H24.95v-3.151c0-3.914-.157-4.874-.906-5.556-.491-.447-.655-.496-1.418-.422-1.022.098-1.65.602-1.909 1.531-.096.347-.175 2.198-.176 4.114v3.484h-3.704zm-5.489-8.115c-.51-.277-1.038-1.234-1.037-1.878.003-1.144 1.365-2.237 2.52-2.02 1.878.352 2.442 2.488.982 3.716-.611.515-1.704.595-2.465.182z"/>
</svg>
