<svg width="75" height="188.976" viewBox="0 0 75 50" xml:space="preserve" xmlns="http://www.w3.org/2000/svg">
  <path d="M.08 49.469c-.11-2.852-.106-6.032.007-6.084.165-.075 74.765-.08 74.813-.005.12.186.138 6.507.02 6.563-.113.053-42.616.076-73.062.04l-1.76-.003zm68.738-1.933c1.46.005 2.732-.022 2.825-.058.132-.051.174-1.325.051-1.6-.025-.057-5.716-.09-5.988-.035-.078.015-.136.405-.13.865.01.61.09.834.3.83.16-.006 1.483-.006 2.943-.001zM3.443 40.755C3.351 38.333 3.001.07 3.052.047c.258-.122 67.762.018 67.812.14.081.194.527 40.987.45 41.004-.136.032-67.118-.023-67.468-.054-.271-.024-.393-.141-.403-.382Zm34.103-5.35c14.35.002 26.126-.008 26.17-.025.16-.06.161-29.446 0-29.508-.213-.08-53.07-.114-53.293-.033-.09.033-.048 6.588.097 14.568.145 7.979.265 14.62.266 14.757.002.154.131.247.336.242.184-.004 12.074-.005 26.424-.001z"/>
</svg>
