<svg width="225.545" height="282.423" viewBox="0 0 59.675 74.724" xmlns="http://www.w3.org/2000/svg">
  <path d="M30.427 74.703c-.744-.063-27.433-11.879-28.552-12.641-.493-.336-.99-.898-1.331-1.506C.062 59.697 0 59.424 0 58.175v-1.411l12.142-27.252C22.845 5.49 24.372 2.168 25.02 1.489 26.039.417 27.043-.003 28.575 0l1.235.003 13.582 6.052c7.47 3.328 13.883 6.24 14.252 6.472 1.703 1.068 2.503 3.656 1.744 5.65-.175.462-5.671 12.865-12.212 27.563-9.073 20.385-12.037 26.883-12.501 27.397-1.017 1.128-2.587 1.707-4.248 1.567zM20.02 65.752c.604-.309 1.35-1.125 1.576-1.724.104-.273.188-.843.188-1.267 0-1.716-1.077-2.998-2.793-3.325-2.114-.402-4.175 1.667-3.83 3.847.349 2.212 2.862 3.489 4.86 2.469zm20.606-14.236 9.53-21.387c2.423-5.433 4.352-9.93 4.288-9.992C54.26 19.955 26.01 7.41 25.953 7.484c-.136.178-18.986 42.658-18.986 42.787 0 .145 27.937 12.704 28.333 12.738.109.009 2.505-5.163 5.326-11.493zm12.366-36.051c.593-.753.458-1.504-.345-1.92-.585-.302-1.482-.072-1.763.451-.73 1.365 1.156 2.68 2.108 1.469zm-4.944-2.64c.127-.349.162-.692.08-.763-.19-.163-11.766-5.305-11.943-5.305-.146 0-.7 1.236-.6 1.337.122.122 11.866 5.34 12.049 5.353.101.007.288-.272.414-.622z"/>
</svg>
