<svg width="150" height="150" viewBox="0 0 150 150" xmlns="http://www.w3.org/2000/svg">
  <path d="M66.94.417C40.512 3.174 16.897 20.57 6.162 45.183c-6.918 15.891-8.07 34.189-3.157 51.034 6.067 21.004 21.763 38.748 42.072 47.623 15.896 6.916 34.2 8.067 51.05 3.156 25.221-7.269 45.08-27.97 51.599-53.689 10.178-40.304-14.794-81.513-55.211-91.135C83.637.066 75.818-.485 66.94.417Zm1.003 46.57c6.417 8.523 11.835 15.541 12.035 15.541.2 0 6.872-7.018 14.743-15.54l14.392-15.54h8.174l-1.755 1.856c-1.003 1.05-7.522 8.118-14.493 15.69-6.97 7.569-13.79 14.936-15.146 16.291l-2.405 2.557 18.805 25.015c10.33 13.786 18.805 25.213 18.805 25.418 0 .25-6.166.399-13.642.399l-13.688-.05-12.737-17.044c-8.775-11.781-12.887-16.847-13.288-16.543-.301.25-7.424 7.922-15.846 17.044l-15.295 16.593H32.74c-2.154 0-3.91-.102-3.91-.25 0-.15 7.974-8.876 17.7-19.351 9.681-10.477 17.705-19.25 17.802-19.398.052-.205-7.921-11.081-17.7-24.165C36.853 42.476 28.83 31.698 28.83 31.596c0-.097 6.166-.148 13.74-.148h13.737zm0 0"/>
  <path d="M41.098 38.066c.199.35 12.796 17.25 27.898 37.448l27.5 36.801 6.148.051c3.801 0 6.102-.2 6-.5-.046-.25-12.597-17.148-27.796-37.5l-27.704-37h-6.198c-5.148 0-6.199.102-5.847.7zm0 0"/>
</svg>
