<svg width="141.774" height="141.278" viewBox="0 0 37.511 37.38" xmlns="http://www.w3.org/2000/svg">
  <path d="M23.612 36.836c3.972-1.09 7.274-3.287 9.9-6.583 5.068-6.362 5.346-15.418.68-22.168-6.631-9.591-20.46-10.87-28.63-2.647C.456 10.578-1.283 17.812.965 24.566c.726 2.182 1.506 3.674 2.827 5.41 2.463 3.238 5.85 5.61 9.538 6.68 2.371.687 3.1.773 5.96.704 2.17-.052 2.947-.146 4.322-.524zm-9.469-11.39c-3.423-.144-3.962-.315-4.514-1.435-.477-.968-.711-3.456-.604-6.412.147-4.07.661-5.18 2.55-5.501 1.091-.186 13.286-.186 14.373 0 1.162.198 1.827.811 2.205 2.033.255.824.307 1.647.298 4.703-.017 5.362-.35 6.125-2.822 6.435-1.815.228-8.028.324-11.486.178zm8.104-6.852c.149-.15-5.433-3.2-5.855-3.2-.192 0-.287 6.017-.097 6.206.093.093 5.667-2.722 5.952-3.006z"/>
</svg>
